<?xml version="1.0" encoding="UTF-8" standalone="no"?>
<svg xmlns="http://www.w3.org/2000/svg" width="151.85988" height="151.85988" version="1.0">
  <path d="M20.382927 148.85388c-5.379898-.69152-5.391591-.70546-5.006933-5.96845.437947-5.9921 1.676361-15.33148 2.290517-17.27372.638728-2.01996 2.684322-3.71797 7.127713-5.91663 1.958315-.969 3.560575-2.03066 3.560575-2.35925 0-.35369-.84685-.6587-2.075744-.74761l-2.075744-.15019v-6.83774l5.860924-.1378c5.506337-.12947 5.891883-.20334 6.372665-1.22103.281461-.59577 1.188742-2.40193 2.016182-4.01369.827435-1.61175 2.403179-4.798622 3.501643-7.08194 1.098469-2.283319 2.764876-5.470196 3.703122-7.08195.93825-1.611754 1.86159-3.260138 2.051865-3.663077.190275-.402938.913357-1.615378 1.606855-2.694315 1.390421-2.163203 1.378016-2.143237 5.002337-8.050711 4.482278-7.30591 7.215271-10.7156 18.790966-23.443694 7.346116-8.077449 13.066265-13.734021 18.005651-17.805532 1.880379-1.549984 6.121202-5.347487 9.424049-8.438894 3.30285-3.091408 6.11519-5.510729 6.24965-5.376269.13446.134459-.54315 1.862875-1.50581 3.840922-.96266 1.978042-1.68105 4.037595-1.59643 4.576775.09978.635779 1.14485-1.004655 2.97349-4.667444 2.65444-5.316898 3.01728-5.795686 6.1933-8.172442 1.85552-1.38857 5.41595-3.593466 7.91207-4.89977 5.11897-2.6789322 8.74094-4.7796449 12.43573-7.2126274 4.31564-2.8418055 4.47786-2.0996133.91762 4.1983551-1.13891 2.0146923-2.61818 4.8718903-3.28728 6.3493323-.66909 1.477441-2.93487 5.873133-5.03506 9.768205-4.64426 8.613355-5.84057 10.843725-8.51407 15.873335-2.12466 3.997086-3.51923 5.833934-5.05959 6.664172-.47894.258145-3.8856 1.5224-7.57036 2.809461-3.68476 1.287064-7.618739 2.810811-8.74217 3.386109-3.622984 1.855285-3.145734 2.840546.533094 1.100545 3.280818-1.551748 14.375846-5.16403 14.740666-4.799212.52495.524948-3.97658 6.336894-15.980065 20.631955-1.80451 2.149005-5.018006 5.995236-7.141101 8.54718-4.013619 4.824341-6.381842 6.822237-8.131294 6.859771-.564685.012117-1.686051.323943-2.491927.692952l-1.465231.670914 2.319949.039669c1.275971.021817 2.319948.224185 2.319948.449709 0 .373453-2.577751 2.564661-7.986514 6.788903-4.663263 3.642007-12.771069 7.710643-21.696767 10.887813-1.417079.50442-3.93963 1.64136-5.605666 2.52652l-3.02916 1.60939 3.407825.2442 3.407819.24421v6.83774l-1.831539.15159c-1.861287.15404-2.405499 1.00192-1.221025 1.90235.335782.25527 1.709436.86224 3.052564 1.34883 1.516631.54945 3.274932 1.7381 4.639898 3.13667 2.102225 2.15397 2.235121 2.46444 3.054591 7.13605.471208 2.68626.998838 7.67921 1.172507 11.09545l.315767 6.21134-1.272944.48397c-3.611633 1.37314-28.354962 2.01442-36.639128.9496z"/>
</svg>